<svg width="64" height="64" viewBox="0 0 64 64" fill="none" xmlns="http://www.w3.org/2000/svg">
<path d="M41.9841 40.326C38.9621 40.128 36.5861 37.628 36.5861 34.572C36.5861 34.47 36.5881 34.368 36.5941 34.266V34.28C36.5881 34.184 36.5841 34.072 36.5841 33.958C36.5841 30.908 38.9641 28.416 41.9681 28.234H41.9841C45.0021 28.398 47.3861 30.884 47.3861 33.928C47.3861 34.052 47.3821 34.174 47.3741 34.296V34.28C47.3801 34.38 47.3841 34.498 47.3841 34.616C47.3841 37.662 45.0021 40.152 41.9981 40.324H41.9821L41.9841 40.326ZM22.0521 40.326C19.0301 40.128 16.6541 37.628 16.6541 34.572C16.6541 34.47 16.6561 34.368 16.6621 34.266V34.28C16.6561 34.184 16.6521 34.072 16.6521 33.958C16.6521 30.908 19.0321 28.416 22.0361 28.234H22.0521C25.0701 28.398 27.4541 30.884 27.4541 33.928C27.4541 34.052 27.4501 34.174 27.4421 34.296V34.28C27.4481 34.376 27.4521 34.488 27.4521 34.602C27.4521 37.652 25.0721 40.144 22.0681 40.326H22.0521ZM52.7861 12.93C49.2601 11.266 45.1641 9.95 40.8761 9.188L40.5781 9.144C40.5681 9.142 40.5561 9.14 40.5441 9.14C40.4741 9.14 40.4141 9.178 40.3821 9.234C39.9141 10.056 39.4061 11.082 38.9481 12.134L38.8621 12.356C36.8021 12.026 34.4261 11.838 32.0061 11.838C29.5861 11.838 27.2101 12.026 24.8921 12.388L25.1501 12.354C24.6101 11.094 24.0941 10.07 23.5241 9.078L23.6061 9.232C23.5721 9.174 23.5101 9.138 23.4401 9.138C23.4301 9.138 23.4181 9.138 23.4081 9.14C18.8221 9.946 14.7261 11.26 10.8981 13.054L11.2001 12.926C11.1661 12.94 11.1381 12.964 11.1201 12.994C5.41209 21.076 1.99609 31.132 1.99609 41.986C1.99609 43.8 2.09209 45.59 2.27809 47.354L2.26009 47.134C2.26609 47.192 2.29609 47.24 2.33809 47.274C6.61809 50.476 11.5941 53.056 16.9641 54.75L17.3161 54.846C17.3321 54.852 17.3521 54.854 17.3721 54.854C17.4361 54.854 17.4921 54.824 17.5261 54.778C18.5961 53.338 19.6141 51.706 20.4961 49.994L20.5901 49.794C20.6021 49.77 20.6101 49.74 20.6101 49.708C20.6101 49.626 20.5581 49.558 20.4861 49.53H20.4841C18.6601 48.826 17.1181 48.076 15.6501 47.216L15.8041 47.3C15.7461 47.266 15.7081 47.204 15.7081 47.134C15.7081 47.072 15.7381 47.016 15.7841 46.982C16.0981 46.746 16.4141 46.502 16.7141 46.254C16.7461 46.228 16.7881 46.212 16.8321 46.212C16.8601 46.212 16.8861 46.218 16.9081 46.228H16.9061C21.3221 48.35 26.5061 49.59 31.9781 49.59C37.4501 49.59 42.6361 48.35 47.2641 46.136L47.0501 46.228C47.0741 46.216 47.1001 46.21 47.1301 46.21C47.1741 46.21 47.2161 46.226 47.2481 46.252C47.5481 46.5 47.8621 46.748 48.1801 46.982C48.2261 47.018 48.2561 47.074 48.2561 47.136C48.2561 47.206 48.2181 47.266 48.1641 47.3C46.8421 48.09 45.3001 48.838 43.6941 49.456L43.4841 49.528C43.4121 49.556 43.3601 49.626 43.3601 49.706C43.3601 49.738 43.3681 49.768 43.3821 49.794C44.3841 51.714 45.4001 53.342 46.5241 54.888L46.4441 54.774C46.4781 54.822 46.5361 54.854 46.5981 54.854C46.6181 54.854 46.6381 54.85 46.6561 54.846C52.3861 53.062 57.3701 50.482 61.7861 47.182L61.6561 47.276C61.7001 47.244 61.7281 47.194 61.7341 47.138C61.9081 45.57 62.0061 43.75 62.0061 41.908C62.0061 31.078 58.5821 21.048 52.7601 12.84L52.8641 12.996C52.8481 12.964 52.8201 12.938 52.7881 12.924L52.7861 12.93Z" fill="black"/>
</svg>
